<svg width="787" height="189" viewBox="0 0 787 189" fill="none" xmlns="http://www.w3.org/2000/svg">
<g clip-path="url(#clip0_252_2)">
<path d="M212.09 2.24023H156V142.24H176.93V90.4402H212.09C242.16 90.4402 254.76 68.8902 254.76 46.5502C254.76 24.2102 242.16 2.24023 212.09 2.24023ZM210.87 71.3202H176.93V21.3502H211.67C227.32 21.3502 233.82 34.1402 233.82 46.5402C233.82 58.9402 227.12 71.3202 210.87 71.3202Z" fill="white"/>
<path d="M308.89 47.3498C296.7 47.3498 287.15 54.4698 282.27 71.1198V47.3498H262.15V142.23H282.27V110.53C282.27 84.9298 290.41 66.4398 307.67 66.4398H316.2V47.3398H308.89V47.3498Z" fill="white"/>
<path d="M688.54 66.4501H675.1C657.83 66.4501 649.7 84.9401 649.7 110.54V142.24H629.58V47.3501H649.7V71.1201C654.58 54.4701 664.13 47.3501 676.32 47.3501H680.53L688.54 66.4501Z" fill="white"/>
<path d="M509.47 87.9802V142.23H489.35V88.9902C489.35 73.5502 481.22 64.0002 468.42 64.0002C452.77 63.8002 444.65 74.9702 444.65 94.8902V142.23H424.53V88.9902C424.53 73.5502 416.4 64.0002 404.62 64.0002C392.23 64.0002 379.63 71.9202 379.63 91.2302V142.23H359.72V47.3502H379.63V62.1802C383.9 51.6102 396.49 44.9102 409.29 44.9102C423.11 44.9102 434.69 52.2202 440.38 64.8202C448.51 48.3602 463.34 44.9102 472.89 44.9102C496.66 44.9102 509.47 60.9602 509.47 87.9902V87.9802Z" fill="white"/>
<path d="M598.08 47.3502V61.5702C591.98 50.8102 578.98 44.9102 565.16 44.9102C538.33 44.9102 518.23 66.4402 518.23 94.6902C518.23 122.94 539.56 144.67 564.36 144.67C578.98 144.67 591.98 137.15 598.08 126.18V142.23H617.98V47.3502H598.08ZM567.79 125.98C551.14 125.98 538.33 111.75 538.33 94.6902C538.33 77.6302 551.14 63.6002 567.4 63.6002C582.64 63.6002 597.88 76.3902 597.88 94.6902C597.88 112.99 583.65 125.98 567.8 125.98H567.79Z" fill="white"/>
<path d="M786.62 47.3501L727.69 188.36H706.57L727.09 137.97L692.57 55.6401L689.09 47.3501H710.62L737.86 113.39L765.08 47.3501H786.62Z" fill="white"/>
<path d="M347.91 47.3501H328V142.24H347.91V47.3501Z" fill="white"/>
<path d="M337.96 0C334.23 0 330.77 1.42 328.28 3.79C325.87 6.06 324.35 9.22 324.35 12.81C324.35 16.4 325.87 19.55 328.28 21.82C330.78 24.19 334.23 25.61 337.96 25.61C345.48 25.61 351.57 20.13 351.57 12.81C351.57 5.49 345.47 0 337.96 0Z" fill="white"/>
<path d="M20 22.2402H0V142.24H20V22.2402Z" fill="white"/>
<path d="M126 2.24023V142.24H40V122.24H56C83.61 122.24 106 99.8502 106 72.2402C106 44.6302 83.61 22.2402 56 22.2402H40V2.24023H126Z" fill="white"/>
</g>
<defs>
<clipPath id="clip0_252_2">
<rect width="786.62" height="188.36" fill="white"/>
</clipPath>
</defs>
</svg>
